<svg width="24" height="24" viewBox="0 0 24 24" fill="none" xmlns="http://www.w3.org/2000/svg">
<path d="M17.6842 3V4.89474M6.3158 3V4.89474" stroke="#848689" stroke-width="1.5" stroke-linecap="round" stroke-linejoin="round"/>
<path d="M3 12.7041C3 8.57617 3 6.51218 4.18622 5.22979C5.37244 3.94739 7.28162 3.94739 11.1 3.94739H12.9C16.7184 3.94739 18.6276 3.94739 19.8138 5.22979C21 6.51218 21 8.57617 21 12.7041V13.1906C21 17.3186 21 19.3826 19.8138 20.665C18.6276 21.9474 16.7184 21.9474 12.9 21.9474H11.1C7.28162 21.9474 5.37244 21.9474 4.18622 20.665C3 19.3826 3 17.3186 3 13.1906V12.7041Z" stroke="#848689" stroke-width="1.5" stroke-linecap="round" stroke-linejoin="round"/>
<path d="M3.47363 8.6842H20.5263" stroke="#848689" stroke-width="1.5" stroke-linecap="round" stroke-linejoin="round"/>
</svg>
