<svg width="24" height="24" viewBox="0 0 24 24" fill="none" xmlns="http://www.w3.org/2000/svg">
<path d="M17.2884 4C17.9579 3.99998 18.5167 3.99997 18.969 4.04598C19.4425 4.09415 19.8818 4.19886 20.2778 4.46346C20.5781 4.6641 20.8359 4.92191 21.0365 5.22218C21.3011 5.61818 21.4059 6.05755 21.454 6.53102C21.5 6.98335 21.5 7.54208 21.5 8.21166L21.5 16.2883V16.2884C21.5 16.9579 21.5 17.5167 21.454 17.969C21.4059 18.4425 21.3011 18.8818 21.0365 19.2778C20.8359 19.5781 20.5781 19.8359 20.2778 20.0365C19.8818 20.3011 19.4425 20.4059 18.969 20.454C18.5167 20.5 17.9579 20.5 17.2884 20.5H17.2116C16.5421 20.5 15.9833 20.5 15.531 20.454C15.0575 20.4059 14.6182 20.3011 14.2222 20.0365C13.9219 19.8359 13.6641 19.5781 13.4635 19.2778C13.1989 18.8818 13.0941 18.4425 13.046 17.969C13 17.5167 13 16.9579 13 16.2884V16.2883V8.21166V8.21162C13 7.54206 13 6.98334 13.046 6.53102C13.0942 6.05755 13.1989 5.61818 13.4635 5.22218C13.6641 4.92191 13.9219 4.6641 14.2222 4.46346C14.6182 4.19886 15.0575 4.09415 15.531 4.04598C15.9833 3.99997 16.5421 3.99998 17.2116 4H17.2117H17.2883H17.2884Z" fill="#5353CB"/>
<path d="M6.28838 4C6.95794 3.99998 7.51666 3.99997 7.96898 4.04598C8.44245 4.09415 8.88182 4.19886 9.27782 4.46346C9.57809 4.6641 9.83591 4.92191 10.0365 5.22218C10.3011 5.61818 10.4059 6.05755 10.454 6.53102C10.5 6.98335 10.5 7.54208 10.5 8.21166L10.5 16.2883V16.2884C10.5 16.9579 10.5 17.5167 10.454 17.969C10.4059 18.4425 10.3011 18.8818 10.0365 19.2778C9.83591 19.5781 9.57809 19.8359 9.27782 20.0365C8.88182 20.3011 8.44245 20.4059 7.96898 20.454C7.51665 20.5 6.95793 20.5 6.28836 20.5H6.21164C5.54207 20.5 4.98335 20.5 4.53102 20.454C4.05755 20.4059 3.61818 20.3011 3.22218 20.0365C2.92191 19.8359 2.6641 19.5781 2.46346 19.2778C2.19886 18.8818 2.09415 18.4425 2.04598 17.969C1.99997 17.5167 1.99998 16.9579 2 16.2884V16.2883V8.21166V8.21162C1.99998 7.54206 1.99997 6.98334 2.04599 6.53102C2.09415 6.05755 2.19886 5.61818 2.46346 5.22218C2.6641 4.92191 2.92191 4.6641 3.22218 4.46346C3.61818 4.19886 4.05755 4.09415 4.53102 4.04598C4.98335 3.99997 5.54207 3.99998 6.21164 4H6.21166H6.28835H6.28838Z" fill="#5353CB"/>
</svg>
