<svg width="24" height="24" viewBox="0 0 24 24" fill="none" xmlns="http://www.w3.org/2000/svg">
<path d="M8.75 8.75098V5.75098C8.75 4.95533 8.43393 4.19227 7.87132 3.62966C7.30871 3.06705 6.54565 2.75098 5.75 2.75098C4.95435 2.75098 4.19129 3.06705 3.62868 3.62966C3.06607 4.19227 2.75 4.95533 2.75 5.75098C2.75 6.54663 3.06607 7.30969 3.62868 7.8723C4.19129 8.43491 4.95435 8.75098 5.75 8.75098H8.75ZM8.75 8.75098H15.25M8.75 8.75098V15.251H15.25V8.75098M15.25 8.75098V5.75098C15.25 4.95533 15.5661 4.19227 16.1287 3.62966C16.6913 3.06705 17.4544 2.75098 18.25 2.75098C19.0456 2.75098 19.8087 3.06705 20.3713 3.62966C20.9339 4.19227 21.25 4.95533 21.25 5.75098C21.25 6.54663 20.9339 7.30969 20.3713 7.8723C19.8087 8.43491 19.0456 8.75098 18.25 8.75098H15.25ZM2.75 18.249C2.75 19.0446 3.06607 19.8077 3.62868 20.3703C4.19129 20.9329 4.95435 21.249 5.75 21.249C6.54565 21.249 7.30871 20.9329 7.87132 20.3703C8.43393 19.8077 8.75 19.0446 8.75 18.249V15.249H5.75C4.95435 15.249 4.19129 15.565 3.62868 16.1277C3.06607 16.6903 2.75 17.4533 2.75 18.249ZM21.25 18.249C21.25 19.0446 20.9339 19.8077 20.3713 20.3703C19.8087 20.9329 19.0456 21.249 18.25 21.249C17.4544 21.249 16.6913 20.9329 16.1287 20.3703C15.5661 19.8077 15.25 19.0446 15.25 18.249V15.249H18.25C19.0456 15.249 19.8087 15.565 20.3713 16.1277C20.9339 16.6903 21.25 17.4533 21.25 18.249Z" stroke="#848689" stroke-width="1.5" stroke-linecap="round" stroke-linejoin="round"/>
</svg>
