<svg width="24" height="24" viewBox="0 0 24 24" fill="none" xmlns="http://www.w3.org/2000/svg">
<path fill-rule="evenodd" clip-rule="evenodd" d="M16.6173 3.16851C15.71 2.81091 14.8335 3.05329 14.2131 3.60548C13.6071 4.14316 13.241 4.97273 13.241 5.8518V9.26567C13.241 10.091 13.9101 10.7592 14.7345 10.7592H18.1484C19.0275 10.7592 19.857 10.3922 20.3956 9.78713C20.9469 9.16666 21.1893 8.29015 20.8308 7.38292C20.4541 6.4296 19.8858 5.56372 19.161 4.83882C18.4363 4.11393 17.5705 3.54543 16.6173 3.16851ZM14.5212 9.26567V5.8518C14.5212 5.31668 14.7473 4.84301 15.064 4.56136C15.3652 4.29337 15.7391 4.19864 16.1479 4.35995C16.9378 4.6724 17.6553 5.14353 18.256 5.74421C18.8567 6.3449 19.3278 7.06238 19.6403 7.85233C19.8016 8.26114 19.7068 8.63495 19.4388 8.93623C19.1572 9.25286 18.6835 9.47903 18.1484 9.47903H14.7345C14.6779 9.47903 14.6237 9.45655 14.5837 9.41654C14.5436 9.37652 14.5212 9.32225 14.5212 9.26567Z" fill="#848689"/>
<path fill-rule="evenodd" clip-rule="evenodd" d="M11.3164 4.03392C10.7958 3.69595 10.2923 3.59866 9.73753 3.69595C9.26812 3.77788 8.76458 4.0032 8.22946 4.24302L8.17227 4.26863C6.87851 4.84807 5.74495 5.73323 4.86916 6.84793C3.99337 7.96263 3.40159 9.27347 3.14476 10.6676C2.88794 12.0617 2.97376 13.4974 3.39485 14.851C3.81593 16.2046 4.55966 17.4356 5.56201 18.438C6.56436 19.4405 7.7953 20.1843 9.14888 20.6055C10.5025 21.0266 11.9381 21.1126 13.3323 20.8559C14.7264 20.5991 16.0373 20.0075 17.1521 19.1317C18.2668 18.256 19.1521 17.1225 19.7316 15.8288L19.7572 15.7708C19.997 15.2357 20.2224 14.7321 20.3043 14.2619C20.4007 13.7088 20.3043 13.2044 19.9663 12.6829C19.6027 12.1222 19.1043 11.8474 18.4949 11.7228C17.9538 11.6118 17.2779 11.6118 16.503 11.6127H15.1613C14.3386 11.6127 13.7855 11.611 13.3733 11.5564C12.9798 11.5026 12.8109 11.4113 12.6999 11.3003C12.589 11.1894 12.4976 11.0204 12.4439 10.6261C12.3892 10.2147 12.3875 9.66168 12.3875 8.83894V7.49729C12.3875 6.72234 12.3875 6.0464 12.2766 5.5053C12.1528 4.89592 11.878 4.3975 11.3164 4.03392ZM8.69545 5.43702C9.30909 5.16221 9.66499 5.00773 9.95858 4.95652C10.1847 4.91726 10.3631 4.94116 10.6209 5.10844C10.8376 5.24926 10.9529 5.41654 11.0228 5.76134C11.1039 6.15991 11.1073 6.70356 11.1073 7.55874V8.88332C11.1073 9.64973 11.1073 10.2898 11.1756 10.7968C11.2473 11.3328 11.4061 11.8167 11.7952 12.205C12.1836 12.5942 12.6675 12.7529 13.2035 12.8246C13.7104 12.8929 14.3505 12.8929 15.1169 12.8929H16.4415C17.2967 12.8929 17.8403 12.8963 18.2389 12.9774C18.5837 13.0474 18.751 13.1626 18.8918 13.3794C19.0591 13.6371 19.083 13.8155 19.0437 14.0425C18.9925 14.3353 18.838 14.6911 18.5632 15.3056C17.7827 17.0458 16.3666 18.4218 14.6048 19.1522C12.792 19.9026 10.7567 19.9094 8.93889 19.1712C7.12109 18.4329 5.66682 17.009 4.89046 15.2071C4.11411 13.4053 4.07803 11.3703 4.79004 9.54204C5.50205 7.7138 6.90494 6.23921 8.69545 5.43702Z" fill="#848689"/>
</svg>
