<svg width="24" height="24" viewBox="0 0 24 24" fill="none" xmlns="http://www.w3.org/2000/svg">
<path fill-rule="evenodd" clip-rule="evenodd" d="M12 1C10.7042 1 9.46154 1.51474 8.5453 2.43098C7.62906 3.34723 7.11432 4.58992 7.11432 5.88568C7.11432 7.18145 7.62906 8.42414 8.5453 9.34038C9.46154 10.2566 10.7042 10.7714 12 10.7714C13.2958 10.7714 14.5385 10.2566 15.4547 9.34038C16.3709 8.42414 16.8857 7.18145 16.8857 5.88568C16.8857 4.58992 16.3709 3.34723 15.4547 2.43098C14.5385 1.51474 13.2958 1 12 1ZM8.65716 5.88568C8.65716 4.99911 9.00935 4.14884 9.63626 3.52194C10.2632 2.89504 11.1134 2.54285 12 2.54285C12.8866 2.54285 13.7368 2.89504 14.3637 3.52194C14.9906 4.14884 15.3428 4.99911 15.3428 5.88568C15.3428 6.77226 14.9906 7.62252 14.3637 8.24942C13.7368 8.87633 12.8866 9.22852 12 9.22852C11.1134 9.22852 10.2632 8.87633 9.63626 8.24942C9.00935 7.62252 8.65716 6.77226 8.65716 5.88568ZM12 12.3142C9.62093 12.3142 7.42803 12.8552 5.80392 13.7686C4.20348 14.6696 3.00006 16.0335 3.00006 17.7142V17.8191C2.99903 19.0143 2.998 20.5139 4.31353 21.5857C4.9605 22.1123 5.86667 22.4877 7.09066 22.7346C8.31671 22.9835 9.91613 23.1141 12 23.1141C14.0839 23.1141 15.6823 22.9835 16.9104 22.7346C18.1344 22.4877 19.0395 22.1123 19.6875 21.5857C21.003 20.5139 21.001 19.0143 20.9999 17.8191V17.7142C20.9999 16.0335 19.7965 14.6696 18.1971 13.7686C16.572 12.8552 14.3801 12.3142 12 12.3142ZM4.5429 17.7142C4.5429 16.8389 5.18267 15.8885 6.55992 15.114C7.91351 14.3528 9.83487 13.8571 12.001 13.8571C14.1651 13.8571 16.0865 14.3528 17.4401 15.114C18.8184 15.8885 19.4571 16.8389 19.4571 17.7142C19.4571 19.0595 19.4159 19.8166 18.7124 20.3884C18.3318 20.6991 17.6941 21.0025 16.6039 21.2226C15.5167 21.4427 14.0304 21.5713 12 21.5713C9.96961 21.5713 8.48231 21.4427 7.39614 21.2226C6.30586 21.0025 5.66815 20.6991 5.28759 20.3895C4.58405 19.8166 4.5429 19.0595 4.5429 17.7142Z" fill="#848689"/>
</svg>
