<svg width="24" height="24" viewBox="0 0 24 24" fill="none" xmlns="http://www.w3.org/2000/svg">
<path fill-rule="evenodd" clip-rule="evenodd" d="M7.69674 3.00084H7.80307C8.09693 3.00084 8.28614 3.00084 8.47116 3.01758C9.26787 3.09205 10.0236 3.40513 10.6395 3.91591C10.7819 4.03479 10.9158 4.16874 11.1243 4.37637L11.6065 4.85944C12.3148 5.56688 12.5869 5.83144 12.9017 6.00642C13.0847 6.108 13.277 6.18781 13.4785 6.24586C13.8243 6.34381 14.2035 6.34967 15.2048 6.34967H15.5607C16.6264 6.34967 17.4862 6.34967 18.1652 6.43507C18.8693 6.52381 19.4679 6.71302 19.9602 7.15507C20.0422 7.2293 20.1204 7.30744 20.1946 7.38949C20.6375 7.88177 20.8259 8.48037 20.9146 9.18447C21 9.86428 21 10.7233 21 11.789V13.723C21 15.2609 21 16.4799 20.8719 17.4335C20.7396 18.4147 20.4617 19.2092 19.8354 19.8363C19.2084 20.4625 18.4139 20.7405 17.4327 20.8727C16.4782 21.0008 15.2601 21.0008 13.7213 21.0008H10.2787C8.73991 21.0008 7.52093 21.0008 6.56735 20.8727C5.58614 20.7405 4.79163 20.4625 4.16456 19.8363C3.53833 19.2092 3.26037 18.4147 3.12809 17.4335C3 16.4791 3 15.2609 3 13.7221V7.69758C3 7.03033 3 6.6067 3.06865 6.24084C3.2167 5.45438 3.59859 4.73089 4.16439 4.16494C4.73019 3.59899 5.45358 3.21691 6.24 3.06865C6.6067 3 7.03033 3 7.69674 3M7.77209 4.25581C7.00437 4.25581 6.708 4.25833 6.47191 4.3027C5.93427 4.40433 5.43977 4.66569 5.05295 5.05266C4.66613 5.43963 4.40496 5.93424 4.30353 6.47191C4.25833 6.708 4.25581 7.00437 4.25581 7.77209V13.6753C4.25581 15.2718 4.25749 16.4062 4.37302 17.2669C4.48605 18.1083 4.6987 18.5939 5.05284 18.948C5.40698 19.3021 5.89256 19.5148 6.73479 19.6278C7.59544 19.7433 8.72902 19.745 10.3256 19.745H13.6744C15.271 19.745 16.4054 19.7433 17.266 19.6278C18.1074 19.5148 18.593 19.3021 18.9472 18.948C19.3013 18.5939 19.514 18.1083 19.627 17.266C19.7425 16.4062 19.7442 15.2718 19.7442 13.6753V11.8317C19.7442 10.7132 19.7433 9.93377 19.6688 9.34102C19.596 8.76419 19.4629 8.45358 19.2611 8.22921C19.2171 8.17958 19.1701 8.13261 19.1205 8.08856C18.8961 7.88679 18.5847 7.75367 18.0087 7.68084C17.4167 7.60633 16.6365 7.60549 15.518 7.60549H15.1127C14.2353 7.60549 13.6694 7.60549 13.1344 7.45312C12.8414 7.3694 12.5576 7.25219 12.2905 7.104C11.8049 6.83274 11.4047 6.4334 10.7835 5.81219L10.7191 5.74688L10.2586 5.28642C10.1242 5.14586 9.98365 5.01122 9.83749 4.88288C9.41629 4.53362 8.89957 4.31947 8.35479 4.26837C8.16082 4.25601 7.9664 4.25126 7.77209 4.25581ZM12.2093 10.3264C12.2093 10.1599 12.2755 10.0002 12.3932 9.88242C12.511 9.76467 12.6707 9.69851 12.8372 9.69851H17.0233C17.1898 9.69851 17.3495 9.76467 17.4673 9.88242C17.585 10.0002 17.6512 10.1599 17.6512 10.3264C17.6512 10.493 17.585 10.6527 17.4673 10.7704C17.3495 10.8882 17.1898 10.9543 17.0233 10.9543H12.8372C12.6707 10.9543 12.511 10.8882 12.3932 10.7704C12.2755 10.6527 12.2093 10.493 12.2093 10.3264Z" fill="#848689"/>
</svg>
