<svg width="24" height="24" viewBox="0 0 24 24" fill="none" xmlns="http://www.w3.org/2000/svg">
<path d="M7.5 3C7.5 2.0335 8.2835 1.25 9.25 1.25H14.75C15.7165 1.25 16.5 2.0335 16.5 3C16.5 3.9665 15.7165 4.75 14.75 4.75H9.25C8.2835 4.75 7.5 3.9665 7.5 3Z" fill="#5353CB"/>
<path fill-rule="evenodd" clip-rule="evenodd" d="M6.25 3.00119C6.25 2.91256 6.17409 2.84085 6.08629 2.85296C5.18618 2.97711 4.43852 3.24242 3.8481 3.83338C3.24631 4.43574 2.9875 5.19409 2.86651 6.09483C2.74996 6.9625 2.74998 8.0658 2.75 9.43472L2.75 16.0505C2.74998 17.4194 2.74996 18.5227 2.86651 19.3903C2.9875 20.2911 3.24631 21.0494 3.8481 21.6518C4.44999 22.2542 5.20792 22.5134 6.10816 22.6346C6.97517 22.7512 8.07752 22.7512 9.44506 22.7512L14.5549 22.7512C15.9225 22.7512 17.0248 22.7512 17.8918 22.6346C18.7921 22.5134 19.55 22.2542 20.1519 21.6518C20.7537 21.0494 21.0125 20.2911 21.1335 19.3903C21.25 18.5226 21.25 17.4194 21.25 16.0504L21.25 9.43475C21.25 8.0658 21.25 6.96252 21.1335 6.09483C21.0125 5.19409 20.7537 4.43574 20.1519 3.83338C19.5615 3.24242 18.8138 2.97711 17.9137 2.85296C17.8259 2.84085 17.75 2.91256 17.75 3.00119C17.75 4.65804 16.4069 6.00119 14.75 6.00119L9.25 6.00119C7.59314 6.00119 6.25 4.65804 6.25 3.00119ZM8.00195 10.25C7.58774 10.25 7.25195 10.5858 7.25195 11C7.25195 11.4142 7.58774 11.75 8.00195 11.75L16.002 11.75C16.4162 11.75 16.752 11.4142 16.752 11C16.752 10.5858 16.4162 10.25 16.002 10.25L8.00195 10.25ZM8.00195 15.25C7.58774 15.25 7.25195 15.5858 7.25195 16C7.25195 16.4142 7.58774 16.75 8.00195 16.75H12.002C12.4162 16.75 12.752 16.4142 12.752 16C12.752 15.5858 12.4162 15.25 12.002 15.25H8.00195Z" fill="#5353CB"/>
</svg>
